<svg xmlns="http://www.w3.org/2000/svg" viewBox="0 0 500 500"><g id="freepik--background-complete--inject-113"><rect y="382.4" width="500" height="0.25" style="fill:#ebebeb"></rect><rect x="359" y="391.92" width="90.9" height="0.25" style="fill:#ebebeb"></rect><rect x="306.33" y="389.21" width="24.89" height="0.25" style="fill:#ebebeb"></rect><rect x="349.52" y="401.21" width="38.59" height="0.25" style="fill:#ebebeb"></rect><rect x="52.46" y="399.53" width="22.64" height="0.25" style="fill:#ebebeb"></rect><rect x="84" y="399.53" width="26.89" height="0.25" style="fill:#ebebeb"></rect><rect x="178.31" y="395.31" width="46.84" height="0.25" style="fill:#ebebeb"></rect><path d="M237,337.8H43.91a5.71,5.71,0,0,1-5.7-5.71V60.66A5.71,5.71,0,0,1,43.91,55H237a5.71,5.71,0,0,1,5.71,5.71V332.09A5.71,5.71,0,0,1,237,337.8ZM43.91,55.2a5.46,5.46,0,0,0-5.45,5.46V332.09a5.46,5.46,0,0,0,5.45,5.46H237a5.47,5.47,0,0,0,5.46-5.46V60.66A5.47,5.47,0,0,0,237,55.2Z" style="fill:#ebebeb"></path><path d="M453.31,337.8H260.21a5.72,5.72,0,0,1-5.71-5.71V60.66A5.72,5.72,0,0,1,260.21,55h193.1A5.71,5.71,0,0,1,459,60.66V332.09A5.71,5.71,0,0,1,453.31,337.8ZM260.21,55.2a5.47,5.47,0,0,0-5.46,5.46V332.09a5.47,5.47,0,0,0,5.46,5.46h193.1a5.47,5.47,0,0,0,5.46-5.46V60.66a5.47,5.47,0,0,0-5.46-5.46Z" style="fill:#ebebeb"></path><circle cx="383.32" cy="130.73" r="34.8" style="fill:#fafafa"></circle><path d="M60,159.05a13.22,13.22,0,0,1,3.5.67c.28-2.32,3.08-3.75,8.06-3.59a35.66,35.66,0,0,1,8.16,1.34c-1.73-3.51,0-6,4.9-6a26.18,26.18,0,0,1,9.4,2.14c.7-2.35,3.37-3.8,7.86-3.8,7.14,0,16.81,3.68,24.19,8.83,3.56.1,10.38,2.13,11.54,4H58.69l-.38-.34C56.39,160.4,57.15,159,60,159.05Z" style="fill:#e6e6e6"></path><path d="M370.29,133.21a14.48,14.48,0,0,1,3.87.74c.3-2.56,3.4-4.14,8.91-4a39.76,39.76,0,0,1,9,1.48c-1.92-3.87,0-6.62,5.42-6.62a29,29,0,0,1,10.39,2.37c.78-2.6,3.73-4.2,8.69-4.2,7.9,0,18.59,4.06,26.76,9.77,3.93.1,11.48,2.35,12.76,4.37h-87.3l-.42-.38C366.28,134.71,367.12,133.11,370.29,133.21Z" style="fill:#f0f0f0"></path><path d="M82.45,109.17a19.41,19.41,0,0,1,5.65,1.25c-1-4.33,2.32-7,9.86-6.69a52.23,52.23,0,0,1,13,2.49s0,0,0,0c-4.72-6.52-3.58-11.14,3.72-11.14,4.15,0,9.62,1.49,15.34,4-.38-4.39,2.75-7.08,9.46-7.08,8.32,0,20.26,4.14,31.83,10.5.32-1.85,2.07-2.94,5.27-2.94,4.45,0,10.71,2.09,16.9,5.37.4,0,.82,0,1.26,0,7.88.55,18.94,4.78,25.36,9.62H81.21C77.87,111.4,78.33,109,82.45,109.17Z" style="fill:#f0f0f0"></path><path d="M343.14,163.3a8.42,8.42,0,0,1,2.33.51c-.42-1.78.95-2.88,4.06-2.75a21.57,21.57,0,0,1,5.38,1h0c-1.94-2.68-1.48-4.59,1.53-4.59a17.06,17.06,0,0,1,6.33,1.65c-.16-1.81,1.13-2.92,3.9-2.92,3.43,0,8.35,1.7,13.13,4.33.13-.77.85-1.22,2.17-1.22a16.7,16.7,0,0,1,7,2.22,4.79,4.79,0,0,1,.52,0,22.54,22.54,0,0,1,10.45,4H342.63C341.25,164.22,341.44,163.24,343.14,163.3Z" style="fill:#fafafa"></path><path d="M388.42,65.62c5.41-1.76,8.65-4.83,12.88-.3-5.68-3.34-12.53,2.57-12.53,2.57s-8.32-3.55-12.71,1.36C378.7,63.65,382.72,65.6,388.42,65.62Z" style="fill:#e0e0e0"></path><path d="M364.1,83.14c3.44-1.11,5.5-3.07,8.18-.19-3.61-2.12-8,1.64-8,1.64s-5.28-2.26-8.07.86C357.93,81.89,360.48,83.13,364.1,83.14Z" style="fill:#e0e0e0"></path><path d="M110.21,75.61c4.62-1.15,7.49-3.53,10.75.49-4.54-3.11-10.58,1.43-10.58,1.43s-6.73-3.44-10.67.41C102.23,73.42,105.47,75.27,110.21,75.61Z" style="fill:#e0e0e0"></path><polygon points="145.82 243.89 90.39 243.89 73.2 256.94 73.2 251.68 62.42 251.68 62.42 265.12 50.22 274.39 50.22 274.39 50.22 276.79 50.22 382.4 80.4 382.4 90.39 382.4 186 382.4 186 274.39 145.82 243.89" style="fill:#f0f0f0"></polygon><polygon points="57.99 299.91 101.63 299.91 115.17 310.19 115.17 306.05 123.65 306.05 123.65 316.63 133.26 323.92 133.26 323.92 133.26 325.82 133.26 382.4 109.5 382.4 101.63 382.4 26.36 382.4 26.36 323.92 57.99 299.91" style="fill:#f5f5f5"></polygon><polygon points="376.32 299.91 419.96 299.91 433.49 310.19 433.49 306.05 441.98 306.05 441.98 316.63 451.59 323.92 451.59 323.92 451.59 325.82 451.59 382.4 427.82 382.4 419.96 382.4 344.69 382.4 344.69 323.92 376.32 299.91" style="fill:#f5f5f5"></polygon></g><g id="freepik--House--inject-113"><rect x="87" y="191.09" width="320" height="191.02" style="fill:#407BFF"></rect><rect x="87" y="191.09" width="320" height="191.02" style="opacity:0.2"></rect><polygon points="87 191.09 407 191.09 407 217.28 87 223.67 87 191.09" style="opacity:0.2"></polygon><rect x="87" y="382.11" width="338.67" height="34.13" style="fill:#263238"></rect><rect x="125.99" y="240.33" width="127.67" height="181.46" style="fill:#407BFF"></rect><polygon points="125.99 260.78 253.66 253.67 253.66 240.33 125.99 240.33 125.99 260.78" style="opacity:0.2"></polygon><rect x="115.15" y="239.17" width="149.35" height="7.11" style="fill:#fff"></rect><polygon points="135.15 215.44 244.5 215.44 264.5 239.17 115.15 239.17 135.15 215.44" style="fill:#263238"></polygon><rect x="159.77" y="266.78" width="60.11" height="120.35" style="fill:#fff"></rect><polygon points="217.38 387.13 216.38 387.13 216.38 270.28 163.27 270.28 163.27 387.13 162.27 387.13 162.27 269.28 217.38 269.28 217.38 387.13" style="fill:#e0e0e0"></polygon><path d="M169.91,330.76a2.85,2.85,0,1,1-2.85-2.84A2.85,2.85,0,0,1,169.91,330.76Z" style="fill:#407BFF"></path><rect x="154.94" y="387.13" width="69.78" height="12.19" style="fill:#263238"></rect><rect x="145.94" y="399.32" width="87.78" height="12.19" style="fill:#263238"></rect><rect x="134.69" y="411.51" width="110.28" height="12.19" style="fill:#263238"></rect><circle cx="189.82" cy="304.14" r="17.25" transform="translate(-159.46 223.31) rotate(-45)" style="fill:#407BFF"></circle><path d="M197.34,288.6l-8.92,32.73q.71.06,1.41.06a17.14,17.14,0,0,0,3.14-.29l8.17-30A17.08,17.08,0,0,0,197.34,288.6Z" style="fill:#fff;opacity:0.30000000000000004"></path><path d="M189.83,286.89a17.12,17.12,0,0,0-6,1.06l-7.38,27.12a17.24,17.24,0,0,0,7.52,5.31l9.05-33.19A17.07,17.07,0,0,0,189.83,286.89Z" style="fill:#fff;opacity:0.30000000000000004"></path><path d="M189.77,326.92h0a1.34,1.34,0,0,1-1.33-1.34v-43a1.34,1.34,0,0,1,1.33-1.33h0a1.34,1.34,0,0,1,1.33,1.33v43A1.34,1.34,0,0,1,189.77,326.92Z" style="fill:#fff"></path><path d="M166.94,304.08h0a1.34,1.34,0,0,1,1.33-1.33h43a1.34,1.34,0,0,1,1.33,1.33h0a1.34,1.34,0,0,1-1.33,1.34h-43A1.34,1.34,0,0,1,166.94,304.08Z" style="fill:#fff"></path><rect x="278.78" y="248.78" width="96" height="114.44" style="fill:#fff"></rect><rect x="84.11" y="248.78" width="2.89" height="114.44" style="fill:#407BFF"></rect><rect x="272.56" y="261" width="108.44" height="90" transform="translate(632.78 -20.78) rotate(90)" style="fill:#407BFF"></rect><rect x="271.78" y="301.11" width="110" height="9.78" transform="translate(632.78 -20.78) rotate(90)" style="fill:#fff"></rect><polygon points="291.55 361 306.28 251 325.39 251 310.65 361 291.55 361" style="fill:#fff;opacity:0.30000000000000004"></polygon><polygon points="330.61 361 345.35 251 351.87 251 337.13 361 330.61 361" style="fill:#fff;opacity:0.30000000000000004"></polygon><rect x="253.91" y="376.67" width="171.76" height="5.44" style="fill:#e0e0e0"></rect><rect x="253.91" y="313.67" width="171.76" height="5.44" style="fill:#e0e0e0"></rect><rect x="420.37" y="319.11" width="3.52" height="57.56" style="fill:#e0e0e0"></rect><rect x="380.81" y="319.11" width="3.52" height="57.56" style="fill:#e0e0e0"></rect><rect x="341.24" y="319.11" width="3.52" height="57.56" style="fill:#e0e0e0"></rect><rect x="301.68" y="319.11" width="3.52" height="57.56" style="fill:#e0e0e0"></rect><rect x="262.11" y="319.11" width="3.52" height="57.56" style="fill:#e0e0e0"></rect><rect x="82.32" y="189.08" width="329.35" height="7.11" style="fill:#fff"></rect><path d="M112.22,147.61,229,43.82,345.78,147.61a7.57,7.57,0,0,1-5,13.23H117.25A7.57,7.57,0,0,1,112.22,147.61Z" style="fill:#263238"></path><path d="M282,61.88h35.51a3.25,3.25,0,0,1,3.25,3.25V130a0,0,0,0,1,0,0h-42a0,0,0,0,1,0,0V65.12A3.25,3.25,0,0,1,282,61.88Z" style="fill:#263238"></path><polygon points="229 55.37 120.98 151.38 337.02 151.38 229 55.37" style="fill:#407BFF"></polygon><polygon points="229 55.37 120.98 151.38 232.47 58.46 229 55.37" style="opacity:0.2"></polygon><polygon points="102.33 145.48 391.68 145.48 411.68 189.08 82.33 189.08 102.33 145.48" style="fill:#263238"></polygon><circle cx="229" cy="108.63" r="27.11" transform="translate(85.09 317.27) rotate(-80.78)" style="opacity:0.2"></circle><circle cx="229" cy="105.71" r="27.11" style="fill:#fff"></circle><circle cx="229" cy="105.71" r="23.27" style="fill:#407BFF"></circle><path d="M239.13,84.75l-12,44.16c.63.05,1.27.08,1.9.08a23.8,23.8,0,0,0,4.24-.39l11-40.45A23,23,0,0,0,239.13,84.75Z" style="fill:#fff;opacity:0.30000000000000004"></path><path d="M229,82.44A23.07,23.07,0,0,0,221,83.87l-10,36.59a23.22,23.22,0,0,0,10.14,7.17l12.21-44.78A23,23,0,0,0,229,82.44Z" style="fill:#fff;opacity:0.30000000000000004"></path><rect x="227.13" y="79.21" width="3.6" height="52.87" rx="1.67" style="fill:#fff"></rect><rect x="227.13" y="79.93" width="3.6" height="51.42" rx="1.64" transform="translate(334.56 -123.29) rotate(90)" style="fill:#fff"></rect><path d="M301.68,368.44A28.23,28.23,0,0,0,284,375.09v47.8h19.48l4.74-54.45Z" style="fill:#407BFF"></path><path d="M301.68,368.44A28.23,28.23,0,0,0,284,375.09v47.8h19.48l4.74-54.45Z" style="opacity:0.6000000000000001"></path><path d="M308.17,368.44a28.23,28.23,0,0,0-17.73,6.65v47.8h35.45v-47.8A28.22,28.22,0,0,0,308.17,368.44Z" style="fill:#407BFF"></path><path d="M322.39,419.89h-1v-42.6a22.31,22.31,0,0,0-26.66.14l-.58-.81a23.33,23.33,0,0,1,28,0l.21.15Z" style="fill:#fff"></path><rect x="298.89" y="387.5" width="18.56" height="1" style="fill:#fff"></rect><rect x="302.89" y="392.5" width="10.56" height="1" style="fill:#fff"></rect></g></svg>