<svg xmlns="http://www.w3.org/2000/svg" viewBox="0 0 500 500"><g id="freepik--background-complete--inject-154"><rect y="382.4" width="500" height="0.25" style="fill:#ebebeb"></rect><rect x="416.78" y="398.49" width="33.12" height="0.25" style="fill:#ebebeb"></rect><rect x="322.53" y="401.21" width="8.69" height="0.25" style="fill:#ebebeb"></rect><rect x="396.59" y="389.21" width="19.19" height="0.25" style="fill:#ebebeb"></rect><rect x="52.46" y="390.89" width="43.19" height="0.25" style="fill:#ebebeb"></rect><rect x="104.56" y="390.89" width="6.33" height="0.25" style="fill:#ebebeb"></rect><rect x="131.47" y="395.11" width="93.68" height="0.25" style="fill:#ebebeb"></rect><path d="M237,337.8H43.91a5.71,5.71,0,0,1-5.7-5.71V60.66A5.71,5.71,0,0,1,43.91,55H237a5.71,5.71,0,0,1,5.71,5.71V332.09A5.71,5.71,0,0,1,237,337.8ZM43.91,55.2a5.46,5.46,0,0,0-5.45,5.46V332.09a5.46,5.46,0,0,0,5.45,5.46H237a5.47,5.47,0,0,0,5.46-5.46V60.66A5.47,5.47,0,0,0,237,55.2Z" style="fill:#ebebeb"></path><path d="M453.31,337.8H260.21a5.72,5.72,0,0,1-5.71-5.71V60.66A5.72,5.72,0,0,1,260.21,55h193.1A5.71,5.71,0,0,1,459,60.66V332.09A5.71,5.71,0,0,1,453.31,337.8ZM260.21,55.2a5.47,5.47,0,0,0-5.46,5.46V332.09a5.47,5.47,0,0,0,5.46,5.46h193.1a5.47,5.47,0,0,0,5.46-5.46V60.66a5.47,5.47,0,0,0-5.46-5.46Z" style="fill:#ebebeb"></path><path d="M92,78h12.56s-3.49,12.32-10.23,16c-3.66,2-11.44-4-11.44-4S92.11,86.46,92,78Z" style="fill:#ebebeb"></path><path d="M154.91,85.89s-3.64,6-7.64,6.87a17.48,17.48,0,0,1-2.66,10.17C151.44,102.43,159.72,94.34,154.91,85.89Z" style="fill:#f5f5f5"></path><path d="M63.17,141.67s-4-.11-7.67-4.34c-2.78,1.84-2.33,5.84-2.33,5.84s5.5,3.33,10,4.33A21.27,21.27,0,0,0,63.17,141.67Z" style="fill:#e0e0e0"></path><path d="M448.79,203.47s-3.94-.11-7.67-4.33c-2.77,1.83-2.33,5.83-2.33,5.83s5.5,3.33,10,4.33A21.27,21.27,0,0,0,448.79,203.47Z" style="fill:#e0e0e0"></path><path d="M108.83,137.33c-2-2.16-5-8.33-5-8.33s-2.83,3.17-2.66,5.17,5.83,4.66,5.83,4.66Z" style="fill:#f5f5f5"></path><path d="M105.36,49.78c-2.57-2.32-11.64-6.57-11.64-6.57s6.54-2.72,10-2,5.52,7.42,5.52,7.42Z" style="fill:#f5f5f5"></path><path d="M201.72,75.75c2.21,0,8.34-1.72,8.34-1.72s-2,4-3.95,5.17S200.36,78,200.36,78Z" style="fill:#f5f5f5"></path><path d="M411.38,93,403,88.57s6.66-7,12.45-7c3.14,0,6.21,6.7,6.21,6.7S414.29,87.33,411.38,93Z" style="fill:#f5f5f5"></path><path d="M337.2,46.65s6.05-3.64,10-2.51a17.43,17.43,0,0,1,7.11-7.73C348,33.65,336.91,36.93,337.2,46.65Z" style="fill:#f0f0f0"></path><path d="M58.71,217.59s1.13-4.55,3.5-5.86a11.57,11.57,0,0,1-.3-7C57.68,206.42,54,213.16,58.71,217.59Z" style="fill:#f0f0f0"></path><path d="M423.79,38.17s3.43,1.95,4.75,7.42c3.31-.32,4.79-4.06,4.79-4.06S430,36,426.51,33A21.36,21.36,0,0,0,423.79,38.17Z" style="fill:#e6e6e6"></path><path d="M263.48,45.61a6.72,6.72,0,0,1-5.08-.19c-.94,1.67.35,3.61.35,3.61A23.85,23.85,0,0,0,265,48.6,12.65,12.65,0,0,0,263.48,45.61Z" style="fill:#e6e6e6"></path><path d="M445.27,86.51c.75,2.85.52,9.7.52,9.7s4-1.47,4.77-3.32-3-6.85-3-6.85Z" style="fill:#ebebeb"></path><path d="M378.08,97.33c-2.64,2.16-8.12,10.35-8.12,10.35s-1.68-6.76-.5-10,8-4.26,8-4.26Z" style="fill:#f5f5f5"></path><path d="M96.39,233.75l.78,6.44a21.88,21.88,0,0,1,.28,3.22l-.13,3.22c-.17,4.29-.43,8.58-.83,12.87a.54.54,0,0,1-.59.49.56.56,0,0,1-.49-.49c-.4-4.29-.66-8.58-.83-12.87l-.13-3.22a21.88,21.88,0,0,1,.28-3.22l.78-6.44a.44.44,0,0,1,.49-.39A.45.45,0,0,1,96.39,233.75Z" style="fill:#fafafa"></path><path d="M96.39,272.4l.78,6.44a21.74,21.74,0,0,1,.28,3.21l-.13,3.22c-.17,4.29-.43,8.59-.83,12.88a.54.54,0,0,1-1.08,0c-.4-4.29-.66-8.59-.83-12.88l-.13-3.22a21.74,21.74,0,0,1,.28-3.21l.78-6.44a.44.44,0,0,1,.88,0Z" style="fill:#f0f0f0"></path><path d="M89.5,266.4l-7.75.77a31.48,31.48,0,0,1-3.87.28L74,267.32q-7.76-.24-15.49-.83a.54.54,0,0,1,0-1.08c5.16-.4,10.32-.66,15.49-.83l3.87-.13a31.48,31.48,0,0,1,3.87.28l7.75.78a.44.44,0,0,1,.4.49A.45.45,0,0,1,89.5,266.4Z" style="fill:#ebebeb"></path><path d="M111.11,251.42l-2,3.12A7.38,7.38,0,0,1,108,256l-1.37,1.2c-1.84,1.58-3.73,3.12-5.74,4.54a.55.55,0,0,1-.76-.76c1.42-2,3-3.9,4.54-5.74l1.21-1.37a7,7,0,0,1,1.48-1.08l3.12-2a.47.47,0,0,1,.63.14A.46.46,0,0,1,111.11,251.42Z" style="fill:#f0f0f0"></path><path d="M91.7,270.83l-2.79,3.88a11.77,11.77,0,0,1-1.47,1.87l-1.75,1.59c-2.36,2.09-4.76,4.14-7.28,6.08a.54.54,0,0,1-.76-.1.56.56,0,0,1,0-.66c1.94-2.52,4-4.92,6.08-7.28l1.59-1.75A12.24,12.24,0,0,1,87.19,273l3.89-2.79a.44.44,0,0,1,.62.1A.45.45,0,0,1,91.7,270.83Z" style="fill:#fafafa"></path><path d="M91.08,261.71l-7.23-6.14a45.89,45.89,0,0,1-3.54-3.14L77.06,249q-6.5-6.85-12.77-13.95a.54.54,0,0,1,0-.75.52.52,0,0,1,.71,0q7.11,6.24,14,12.77l3.43,3.24c1.15,1.08,2.1,2.35,3.14,3.54l6.13,7.23a.45.45,0,0,1,0,.63A.45.45,0,0,1,91.08,261.71Z" style="fill:#f0f0f0"></path><path d="M351.48,109.2,345,110a21.88,21.88,0,0,1-3.22.28l-3.22-.13c-4.29-.17-8.58-.43-12.87-.83a.55.55,0,0,1-.49-.59.56.56,0,0,1,.49-.49c4.29-.4,8.58-.66,12.87-.83l3.22-.13a21.88,21.88,0,0,1,3.22.28l6.44.78a.44.44,0,0,1,0,.88Z" style="fill:#fafafa"></path><path d="M312.83,109.2l-6.44.78a21.74,21.74,0,0,1-3.21.28l-3.22-.13c-4.29-.17-8.58-.43-12.88-.83a.54.54,0,0,1,0-1.08c4.3-.4,8.59-.66,12.88-.83l3.22-.13a21.74,21.74,0,0,1,3.21.28l6.44.78a.44.44,0,0,1,0,.88Z" style="fill:#f0f0f0"></path><path d="M318.84,102.31l-.78-7.75a31.48,31.48,0,0,1-.28-3.87l.13-3.87c.17-5.16.43-10.33.83-15.49a.55.55,0,0,1,.58-.5.55.55,0,0,1,.5.5c.4,5.16.66,10.33.83,15.49l.13,3.87a31.48,31.48,0,0,1-.28,3.87l-.78,7.75a.43.43,0,0,1-.48.4A.44.44,0,0,1,318.84,102.31Z" style="fill:#ebebeb"></path><path d="M333.81,123.92l-3.12-2a7,7,0,0,1-1.48-1.08L328,119.44c-1.58-1.84-3.12-3.73-4.54-5.74a.55.55,0,0,1,.13-.76.54.54,0,0,1,.63,0c2,1.42,3.9,3,5.74,4.54l1.37,1.21a7,7,0,0,1,1.08,1.48l2,3.12a.47.47,0,0,1-.14.63A.46.46,0,0,1,333.81,123.92Z" style="fill:#f0f0f0"></path><path d="M314.41,104.51l-3.89-2.79a12.24,12.24,0,0,1-1.87-1.47l-1.59-1.75c-2.09-2.36-4.14-4.76-6.08-7.28a.54.54,0,0,1,.1-.76.56.56,0,0,1,.66,0c2.52,1.94,4.92,4,7.28,6.08l1.75,1.59a12.24,12.24,0,0,1,1.47,1.87l2.79,3.89a.44.44,0,0,1-.62.62Z" style="fill:#fafafa"></path><path d="M323.53,103.89l6.13-7.23a45.89,45.89,0,0,1,3.14-3.54l3.43-3.24q6.86-6.51,13.95-12.78a.54.54,0,0,1,.76.76q-6.26,7.11-12.78,14l-3.24,3.43a45.89,45.89,0,0,1-3.54,3.14l-7.23,6.13a.43.43,0,0,1-.62-.05A.43.43,0,0,1,323.53,103.89Z" style="fill:#f0f0f0"></path></g><g id="freepik--Cup--inject-154"><polygon points="247.25 342.02 229.76 342.02 227.01 282.89 250 282.89 247.25 342.02" style="fill:#407BFF"></polygon><path d="M249.11,302h0a17.17,17.17,0,0,1-21.21,0h0L227,282.9h23Z" style="opacity:0.2"></path><path d="M187,252.93c-24.27,0-47.35-18.16-53.7-42.24L122,167.76a24.52,24.52,0,0,1,3.9-21.45,23.56,23.56,0,0,1,18.93-9H179.4a8.32,8.32,0,0,1,0,16.63H144.84a6.92,6.92,0,0,0-5.76,2.5,8,8,0,0,0-1,7.06l11.32,42.94c4.41,16.73,20.94,29.84,37.62,29.84a8.32,8.32,0,1,1,0,16.63Z" style="fill:#407BFF"></path><path d="M290,252.93a8.32,8.32,0,1,1,0-16.63c16.68,0,33.21-13.11,37.62-29.84l11.31-42.94a8,8,0,0,0-1-7.06,6.92,6.92,0,0,0-5.76-2.5H297.61a8.32,8.32,0,1,1,0-16.63h34.56a23.57,23.57,0,0,1,18.93,9,24.52,24.52,0,0,1,3.9,21.45l-11.31,42.93C337.34,234.77,314.25,252.93,290,252.93Z" style="fill:#407BFF"></path><g style="opacity:0.2"><path d="M187.71,145.65a8.32,8.32,0,0,0-8.31-8.32H150.47l2,16.63H179.4A8.31,8.31,0,0,0,187.71,145.65Z"></path><path d="M187,236.3c-9.41,0-18.76-4.16-25.93-10.8l1.17,9.69a74.27,74.27,0,0,0,2.67,12.72,52.53,52.53,0,0,0,22.09,5,8.32,8.32,0,1,0,0-16.63Z"></path><path d="M281.67,244.62a8.32,8.32,0,0,0,8.31,8.31,52.54,52.54,0,0,0,22.1-5,74.27,74.27,0,0,0,2.67-12.72l1.16-9.69c-7.16,6.64-16.51,10.8-25.93,10.8A8.32,8.32,0,0,0,281.67,244.62Z"></path><path d="M297.61,137.33a8.32,8.32,0,0,0,0,16.63h26.92l2-16.63Z"></path></g><rect x="224.08" y="115.87" width="7.08" height="1" style="fill:#407BFF"></rect><rect x="192.5" y="115.87" width="25.42" height="1" style="fill:#407BFF"></rect><path d="M238.5,294.19h0a69.31,69.31,0,0,1-69.08-63.66l-8.69-106.34a4.45,4.45,0,0,1,4.44-4.82H311.84a4.46,4.46,0,0,1,4.44,4.82l-8.69,106.34A69.32,69.32,0,0,1,238.5,294.19Z" style="fill:#407BFF"></path><path d="M216.11,275a1.74,1.74,0,0,1-1.9,2.85,58.26,58.26,0,0,1-33.74-48.19l-7.88-96.3a2.65,2.65,0,0,1,2.63-2.86h11.95a2.63,2.63,0,0,1,2.63,2.44l7.67,101a64.44,64.44,0,0,0,18.57,41Z" style="fill:#fff;opacity:0.1"></path><path d="M274.12,363.1H202.89a3.06,3.06,0,0,1-3-3.62l2.23-11.85a12.33,12.33,0,0,1,12.11-10.05h48.55a12.33,12.33,0,0,1,12.11,10.05l2.23,11.85A3.06,3.06,0,0,1,274.12,363.1Z" style="fill:#407BFF"></path><path d="M277.12,359.48H199.89a3.06,3.06,0,0,0,3,3.62h71.23A3.06,3.06,0,0,0,277.12,359.48Z" style="opacity:0.2"></path><rect x="177.86" y="363.1" width="121.28" height="50.64" rx="3.04" style="fill:#407BFF"></rect><rect x="177.86" y="363.1" width="121.28" height="50.64" rx="3.04" style="fill:#fff;opacity:0.7000000000000001"></rect></g></svg>